<?xml version="1.0" standalone="no"?><!DOCTYPE svg PUBLIC "-//W3C//DTD SVG 1.1//EN" "http://www.w3.org/Graphics/SVG/1.1/DTD/svg11.dtd"><svg t="1789300645445" class="icon" viewBox="0 0 1024 1024" version="1.1" xmlns="http://www.w3.org/2000/svg" p-id="12905" xmlns:xlink="http://www.w3.org/1999/xlink" width="200" height="200"><path d="M689.51 57.3v2l-0.07-0.31z m-23.8-20.59c13.1 0 23.82 9.52 23.82 22.62l-0.07-0.31v1.55c-0.2 33.44-1.2 195.7-2.23 207.67l-0.12 0.7v503.28c-0.09 32.7-0.58 53.5-3.56 67.18C671.66 890.61 630 939.44 569.24 968c-91.7 42.88-194.12 20.25-226.28-50s15.48-162 108.38-204.84c70.26-32.16 144.1-27.39 190.55 6V60.52a23.88 23.88 0 0 1 23.82-23.81z" p-id="12906" fill="#00adc7"></path></svg>